<svg width="36" height="26" viewBox="0 0 36 26" fill="none" xmlns="http://www.w3.org/2000/svg">
<path d="M35.9957 6.00003V8.20183C34.1222 8.21465 32.2531 8.42842 30.4577 8.97138C27.6128 9.83072 24.976 11.5494 23.4061 14.0419C21.1987 17.5391 21.4069 21.7803 21.4589 26H19C19.0043 24.3412 19.0173 22.6866 19.026 21.0278C19.0651 13.5973 24.1043 7.55625 31.5375 6.248C32.9946 5.99148 34.4952 6.00003 36 6.00003H35.9957Z" fill="white"/>
<path d="M36 0.00180567V2.44931C35.2918 2.44931 34.5881 2.44931 33.8887 2.471C24.5024 2.70534 16.6819 9.4837 15.7714 18.6315C15.5251 21.0746 15.4943 23.5308 15.5075 26H13.0223C12.8772 20.0635 13.3698 14.0793 16.5895 9.18428C18.9207 5.63453 22.5538 2.99609 26.5741 1.52932C29.5782 0.43142 32.7891 -0.0329107 36 0.00180567Z" fill="white"/>
<path d="M21 0.0480769C18.7963 2.94712 18.241 2.97596 11.4835 2.88942C11.4835 2.88942 5.39742 2.96635 0 3V0L21 0.0480769Z" fill="white"/>
<path d="M14.9995 6C15.0214 6.72014 14.3235 7.35472 13.5026 7.63636C12.6861 7.92157 11.7687 7.9287 10.882 7.93583C7.25612 7.95722 3.62587 7.97861 0 8V6.00357H14.9995V6Z" fill="white"/>
</svg>
