<svg width="1512" height="691" viewBox="0 0 1512 691" fill="none" xmlns="http://www.w3.org/2000/svg">
<g style="mix-blend-mode:screen" opacity="0.2">
<path d="M1642.14 264.135V367.205C1555.39 367.805 1468.84 377.812 1385.7 403.229C1253.97 443.457 1131.88 523.911 1059.19 640.59C956.976 804.301 966.615 1002.84 969.025 1200.37H855.166C855.367 1122.72 855.97 1045.26 856.371 967.612C858.178 619.776 1091.52 336.984 1435.71 275.743C1503.18 263.735 1572.66 264.135 1642.34 264.135H1642.14Z" fill="#761113"/>
<path d="M1642.34 0.0833642V113.08C1610.05 113.08 1577.96 113.08 1546.07 114.082C1118.1 124.9 761.523 437.845 720.009 860.179C708.778 972.975 707.375 1086.37 707.976 1200.37H594.666C588.047 926.294 610.509 650.014 757.311 424.021C863.603 260.136 1029.26 138.324 1212.56 70.606C1349.53 19.9179 1495.94 -1.51942 1642.34 0.0833642Z" fill="#761113"/>
<path d="M978.08 4.62692C875.441 125.931 849.58 127.138 534.847 123.517C534.847 123.517 251.386 126.736 0 128.144V2.61523L978.08 4.62692Z" fill="#761113"/>
<path d="M685.156 261.52C686.159 302.011 654.277 337.691 616.781 353.527C579.485 369.563 537.578 369.964 497.074 370.364C331.45 371.567 165.625 372.77 0 373.973V261.72H685.156V261.52Z" fill="#761113"/>
</g>
</svg>
