<svg width="738" height="540" viewBox="0 0 738 540" fill="none" xmlns="http://www.w3.org/2000/svg">
<path d="M737.91 118.686V165.001C698.928 165.271 660.037 169.767 622.679 181.189C563.485 199.265 508.621 235.418 475.956 287.849C430.026 361.415 434.358 450.628 435.441 539.392H384.277C384.367 504.498 384.638 469.694 384.818 434.8C385.631 278.496 490.484 151.421 645.148 123.902C675.467 118.506 706.688 118.686 738 118.686H737.91Z" fill="#761113"/>
<path d="M738 0.0311128V50.8072C723.491 50.8072 709.072 50.8072 694.743 51.2573C502.429 56.1189 342.198 196.743 323.543 386.523C318.496 437.209 317.866 488.166 318.136 539.392H267.219C264.245 416.233 274.338 292.083 340.305 190.531C388.068 116.888 462.506 62.1508 544.875 31.7211C606.426 8.94393 672.213 -0.689115 738 0.0311128Z" fill="#761113"/>
<path d="M439.51 2.07267C393.388 56.582 381.767 57.1244 240.338 55.4972C240.338 55.4972 112.963 56.9436 0 57.5763V1.1687L439.51 2.07267Z" fill="#761113"/>
<path d="M307.881 117.51C308.332 135.705 294.006 151.738 277.156 158.854C260.397 166.06 241.566 166.24 223.365 166.42C148.94 166.96 74.4249 167.501 0 168.041V117.6H307.881V117.51Z" fill="#761113"/>
</svg>
