<svg width="180" height="33" viewBox="0 0 180 33" fill="none" xmlns="http://www.w3.org/2000/svg">
<path d="M59.705 21.7218V6.34062H51.8385V3.60852H72.4145V6.34062H64.548V21.7273H59.705V21.7218Z" fill="white"/>
<path d="M82.073 21.7218H77.274V3.60852H85.6682C88.8126 3.60852 91.2478 4.07028 92.9685 4.98831C94.6891 5.90635 95.5521 7.1707 95.5521 8.77038C95.5521 9.86982 95.1289 10.8758 94.2823 11.7938C93.4357 12.7119 92.1769 13.4375 90.5112 13.9597L97.1298 21.7273H91.8855L85.9101 14.7678H82.0785V21.7273L82.073 21.7218ZM82.073 12.1567H85.4648C86.9435 12.1567 88.1749 11.8653 89.1589 11.2826C90.1429 10.6999 90.6321 9.9028 90.6321 8.89132C90.6321 8.05025 90.2034 7.38509 89.3403 6.90683C88.4773 6.42308 87.2129 6.1867 85.5472 6.1867H82.0785V12.1567H82.073Z" fill="white"/>
<path d="M100.742 21.7217L109.867 3.53149H114.902L124.215 21.7217H119.503L117.48 17.7472H107.256L105.288 21.7217H100.742ZM108.531 15.169H116.167L112.297 7.57193L108.531 15.169Z" fill="white"/>
<path d="M139.447 22.0021C135.495 22.0021 132.4 21.2435 130.168 19.7262C127.936 18.209 126.82 15.9991 126.82 13.0966C126.82 10.1941 127.898 7.73687 130.047 5.97227C132.196 4.20768 135.357 3.32812 139.53 3.32812C140.794 3.32812 141.932 3.3831 142.938 3.49304C143.944 3.60298 144.637 3.70743 145.016 3.81188L145.621 3.98779V6.64293C144.224 6.18666 142.3 5.96128 139.849 5.96128C134.549 5.96128 131.9 8.32507 131.9 13.0472C131.9 17.2635 134.533 19.3744 139.805 19.3744C140.959 19.3744 142.031 19.3085 143.009 19.171C143.993 19.0336 144.686 18.9017 145.087 18.7642L145.692 18.5608V21.216C144.373 21.7382 142.289 22.0021 139.436 22.0021H139.447Z" fill="white"/>
<path d="M157.643 21.7218V6.34062H149.776V3.60852H170.352V6.34062H162.486V21.7273H157.643V21.7218Z" fill="white"/>
<path d="M175.201 21.7218V3.60852H180V21.7273H175.201V21.7218Z" fill="white"/>
<path d="M45.033 7.22014V10.0512C42.6582 10.0677 40.2889 10.3425 38.0131 11.0407C34.4069 12.1456 31.0646 14.3555 29.0746 17.5603C26.2766 22.0571 26.5404 27.5103 26.6064 32.936H23.4895C23.495 30.8031 23.5115 28.6757 23.5225 26.5428C23.572 16.9886 29.9597 9.22111 39.3819 7.53897C41.2289 7.20914 43.131 7.22014 45.0385 7.22014H45.033Z" fill="white"/>
<path d="M45.033 0.00228736V3.1027C44.148 3.1027 43.2684 3.1027 42.3944 3.13019C30.6634 3.42704 20.8894 12.0136 19.7514 23.6017C19.4436 26.6966 19.4051 29.8081 19.4216 32.936H16.3157C16.1343 25.4158 16.75 17.8352 20.7739 11.6343C23.6874 7.13764 28.2281 3.79535 33.2525 1.9373C37.0071 0.546509 41.0201 -0.0416902 45.033 0.00228736Z" fill="white"/>
<path d="M26.8208 0.10673C24.0062 3.42154 23.2971 3.45452 14.6665 3.35557C14.6665 3.35557 6.89348 3.44352 0 3.482V0.0517578L26.8208 0.10673Z" fill="white"/>
<path d="M18.7839 7.19263C18.8114 8.30306 17.9373 9.28156 16.9094 9.71584C15.8869 10.1556 14.738 10.1666 13.6275 10.1776C9.08685 10.2106 4.54068 10.2436 0 10.2766V7.19812H18.7839V7.19263Z" fill="white"/>
<path d="M59.7215 27.1804H63.0363V27.7631H60.5791V29.3408H62.635V29.9125H60.5791V31.5947H63.1078V32.1719H59.7215V27.1804Z" fill="white"/>
<path d="M69.0942 27.1804L67.4066 29.6212L69.1382 32.1719H68.1707L66.8733 30.1104L65.576 32.1719H64.636L66.3621 29.6267L64.691 27.1804H65.6585L66.9008 29.1209L68.1542 27.1804H69.0942Z" fill="white"/>
<path d="M72.0737 27.7576H70.5565V27.1804H74.4705V27.7576H72.9422V32.1719H72.0737V27.7576Z" fill="white"/>
<path d="M77.9722 30.1819H76.9992V32.1719H76.1416V27.1804H78.1976C78.7583 27.1804 79.2035 27.3014 79.5389 27.5487C79.8742 27.7961 80.0391 28.1094 80.0391 28.4997V28.8626C80.0391 29.1704 79.9347 29.4398 79.7258 29.6597C79.5169 29.885 79.2255 30.0335 78.8572 30.1159L80.1436 32.1719H79.1706L77.9722 30.1819ZM76.9992 29.6047H78.1976C78.4999 29.6047 78.7418 29.5222 78.9122 29.3683C79.0826 29.2089 79.1706 29 79.1706 28.7416V28.6152C79.1706 28.3513 79.0881 28.1479 78.9177 27.994C78.7473 27.8401 78.5054 27.7631 78.1976 27.7631H76.9992V29.6047Z" fill="white"/>
<path d="M85.5308 32.1719L85.0745 30.968H82.9801L82.5348 32.1719H81.6608L83.6562 27.1804H84.4368L86.4213 32.1719H85.5363H85.5308ZM83.178 30.4238H84.8766L84.2334 28.6976C84.1895 28.5657 84.1235 28.3018 84.0301 27.906C84.0136 28.1259 83.9476 28.3843 83.8322 28.6921L83.178 30.4238Z" fill="white"/>
<path d="M91.3303 32.0234C90.8741 32.1828 90.3573 32.2598 89.7856 32.2598C89.2139 32.2598 88.7247 32.1388 88.3893 31.9024C88.054 31.6606 87.8891 31.3087 87.8891 30.836V28.5272C87.8891 28.0544 88.054 27.7026 88.3893 27.4607C88.7247 27.2188 89.1864 27.0979 89.7856 27.0979C90.3848 27.0979 90.8741 27.1749 91.3303 27.3343V27.895C90.8521 27.7521 90.3683 27.6806 89.8736 27.6806C89.115 27.6806 88.7357 27.9994 88.7357 28.6371V30.7205C88.7357 31.3582 89.115 31.6771 89.8736 31.6771C90.3683 31.6771 90.8521 31.6056 91.3303 31.4627V32.0289V32.0234Z" fill="white"/>
<path d="M94.4088 27.7576H92.8915V27.1804H96.8055V27.7576H95.2773V32.1719H94.4088V27.7576Z" fill="white"/>
<path d="M98.4767 27.1804H99.3342V32.1719H98.4767V27.1804Z" fill="white"/>
<path d="M101.253 27.1804H101.984L104.337 30.6162V27.1804H105.194V32.1719H104.463L102.11 28.7471V32.1719H101.253V27.1804Z" fill="white"/>
<path d="M110.537 27.8895C110.059 27.7466 109.575 27.6751 109.081 27.6751C108.322 27.6751 107.943 27.994 107.943 28.6316V30.7151C107.943 31.3527 108.289 31.6771 108.987 31.6881C109.312 31.6881 109.603 31.6551 109.872 31.5781V30.0004H108.773V29.4727H110.724V31.9904C110.18 32.1663 109.597 32.2543 108.965 32.2543C108.333 32.2543 107.899 32.1333 107.58 31.8915C107.256 31.6496 107.096 31.2923 107.096 30.8195V28.5162C107.096 28.0434 107.261 27.6916 107.596 27.4497C107.932 27.2079 108.394 27.0869 108.993 27.0869C109.592 27.0869 110.081 27.1639 110.537 27.3233V27.884V27.8895Z" fill="white"/>
<path d="M115.661 27.1804L116.892 30.6546C116.991 30.9405 117.063 31.2044 117.096 31.4462C117.112 31.2538 117.178 30.99 117.294 30.6601L118.536 27.1804H119.405L117.491 32.1719H116.694L114.77 27.1804H115.655H115.661Z" fill="white"/>
<path d="M123.824 32.1719L123.368 30.968H121.274L120.828 32.1719H119.954L121.95 27.1804H122.73L124.715 32.1719H123.83H123.824ZM121.471 30.4238H123.17L122.527 28.6976C122.483 28.5657 122.417 28.3018 122.324 27.906C122.307 28.1259 122.241 28.3843 122.126 28.6921L121.471 30.4238Z" fill="white"/>
<path d="M126.364 27.1804H127.221V31.5947H129.717V32.1719H126.364V27.1804Z" fill="white"/>
<path d="M132.444 31.4847C132.614 31.6167 132.873 31.6826 133.219 31.6826C133.455 31.6826 133.697 31.6331 133.934 31.5287C134.17 31.4243 134.346 31.3033 134.461 31.1549V27.1804H135.313V32.1719H134.813L134.582 31.7211C134.428 31.8695 134.197 31.996 133.895 32.1004C133.593 32.2049 133.29 32.2598 132.994 32.2598C132.433 32.2598 132.021 32.1499 131.751 31.93C131.482 31.7101 131.35 31.3638 131.35 30.88V27.1804H132.196V30.7866C132.196 31.1219 132.279 31.3528 132.449 31.4847H132.444Z" fill="white"/>
<path d="M137.243 27.1804H140.558V27.7631H138.1V29.3408H140.156V29.9125H138.1V31.5947H140.629V32.1719H137.243V27.1804Z" fill="white"/>
</svg>
